<?xml version="1.0" encoding="UTF-8"?>
<svg id="Layer_2" data-name="Layer 2" xmlns="http://www.w3.org/2000/svg" viewBox="0 0 1999.2 431.97">
  <defs>
    <style>
      .cls-1 {
        fill: #f26537;
      }

      .cls-2 {
        fill: #363d3f;
      }

      .cls-3 {
        fill: #7f7f7f;
      }
    </style>
  </defs>
  <g id="Layer_1-2" data-name="Layer 1">
    <g>
      <g>
        <g>
          <circle class="cls-2" cx="215.98" cy="215.98" r="215.98"/>
          <g>
            <polyline class="cls-1" points="102.67 403.37 164.9 250.9 227.31 328.98 326.6 109.7 349.82 120.22 338.51 5.69 244.97 72.74 268.2 83.25 212.06 207.21 146.8 125.56 33.41 403.37 102.67 403.37"/>
            <polyline class="cls-1" points="351.61 403.37 420.87 403.37 320.22 156.74 262.14 284.99 289.39 250.9 351.61 403.37"/>
          </g>
        </g>
        <g>
          <g>
            <path class="cls-1" d="M504.21,82.51h43.22l60.81,158.88,60.51-158.88h43.22v208.66h-37.26v-127.88l-48.29,126.69.3,1.19h-37.26l.3-1.19-48.29-126.69v127.88h-37.26V82.51Z"/>
            <path class="cls-1" d="M747.75,79.24c11.03,0,19.67,8.94,19.67,19.67,0,11.33-8.64,19.97-19.67,19.97s-19.67-8.64-19.67-19.97c0-10.73,8.64-19.67,19.67-19.67ZM729.87,142.13h35.77v149.04h-35.77v-149.04Z"/>
            <path class="cls-1" d="M777.57,142.13h41.14l29.21,44.12,29.21-44.12h41.14l-49.18,74.52,49.18,74.52h-41.14l-29.21-44.12-29.21,44.12h-41.14l49.18-74.52-49.18-74.52Z"/>
            <path class="cls-1" d="M1044.96,163.3c9.24-13.41,24.74-23.85,50.67-23.85,49.19,0,68.56,36.96,68.56,62.9v88.83h-35.77v-87.94c0-21.16-15.5-30.7-32.79-30.7s-32.79,9.54-32.79,30.7v87.94h-35.77v-87.94c0-21.16-15.5-30.7-32.79-30.7s-32.79,9.54-32.79,30.7v87.94h-35.77v-88.83c0-25.93,19.38-62.9,68.56-62.9,25.93,0,41.44,10.43,50.67,23.85Z"/>
            <path class="cls-1" d="M1288.5,244.97h39.05c-9.84,30.11-36.36,48.89-72.43,48.89-46.2,0-77.2-31-77.2-77.2s31-76.61,77.2-76.61,76.91,30.7,76.91,76.61c0,4.17-.3,8.05-.6,11.92h-116.55c3.88,20.57,18.78,32.49,39.94,32.49,14.9,0,26.53-5.66,33.68-16.1ZM1292.38,195.79c-6.26-14.61-19.67-22.95-37.56-22.95s-31,8.35-37.26,22.95h74.82Z"/>
            <path class="cls-1" d="M1498.66,82.51v134.44c0,47.99-34.28,76.61-78.1,76.61s-76.01-30.7-76.01-76.61,31-77.2,74.22-77.2c21.46,0,36.96,7.75,44.12,16.99v-74.22h35.77ZM1421.45,260.77c25.04,0,41.44-16.39,41.44-44.12s-16.4-44.12-41.44-44.12-41.14,16.39-41.14,44.12,16.4,44.12,41.14,44.12Z"/>
            <path class="cls-1" d="M1534.43,79.24c11.03,0,19.67,8.94,19.67,19.67,0,11.33-8.64,19.97-19.67,19.97s-19.67-8.64-19.67-19.97c0-10.73,8.64-19.67,19.67-19.67ZM1516.55,142.13h35.77v149.04h-35.77v-149.04Z"/>
            <path class="cls-1" d="M1718.35,217.25v73.92h-35.77v-14.31c-7.15,9.24-22.35,16.99-44.12,16.99-43.22,0-74.22-31-74.22-77.2s31-76.61,76.91-76.61,77.2,31,77.2,77.2ZM1641.45,172.84c-25.04,0-41.44,16.39-41.44,44.12s16.4,44.12,41.44,44.12,41.13-16.39,41.13-44.12-16.39-44.12-41.13-44.12Z"/>
          </g>
          <g>
            <path class="cls-2" d="M1738.79,202.17h16.37v76.63h44.27v15.06h-60.65v-91.69Z"/>
            <path class="cls-2" d="M1869.78,261.37v32.48h-15.72v-6.29c-3.14,4.06-9.82,7.47-19.39,7.47-18.99,0-32.61-13.62-32.61-33.93s13.62-33.66,33.79-33.66,33.93,13.62,33.93,33.93ZM1835.98,241.86c-11,0-18.21,7.2-18.21,19.39s7.2,19.39,18.21,19.39,18.08-7.2,18.08-19.39-7.2-19.39-18.08-19.39Z"/>
            <path class="cls-2" d="M1891.52,202.17v32.62c3.14-4.06,9.82-7.47,19.26-7.47,19.12,0,32.75,13.62,32.75,33.93s-13.62,33.66-33.53,33.66-34.19-12.57-34.19-33.66v-59.08h15.72ZM1909.6,241.73c-10.87,0-18.08,7.2-18.08,19.39s7.2,19.39,18.08,19.39,18.21-7.2,18.21-19.39-7.2-19.39-18.21-19.39Z"/>
            <path class="cls-2" d="M1999.2,274.08c0,13.36-10.61,20.56-25.54,20.56-13.89,0-22.79-6.29-26.85-9.95l8.38-12.31c5.5,5.24,12.44,7.86,18.86,7.86,5.37,0,9.43-1.83,9.43-5.63,0-11.27-35.63-4.32-35.63-28.29,0-12.05,9.04-18.99,23.84-18.99,12.97,0,21.48,5.24,27.25,9.96l-8.38,12.18c-6.94-5.76-13.75-7.73-19.12-7.73s-7.86,1.7-7.86,4.32c0,9.56,35.63,3.54,35.63,28.03Z"/>
          </g>
        </g>
      </g>
      <g>
        <path class="cls-3" d="M504.3,329.67c-.26-.32.09-.56.43-.56h7.02c.43,0,.52.16.69.32,10.75,17.92,14.22,23.6,15.52,26.32,1.47-2.72,4.85-8.56,15.26-26.24.17-.32.35-.4.69-.4h6.85c.35,0,.43.24.26.48l-19.16,30.88c-.52.72-.69,1.2-.69,2.08v18.88c0,.4-.17.56-.61.56h-5.9c-.61,0-.78-.16-.78-.56v-19.12c0-.88,0-1.28-.52-2l-19.07-30.64Z"/>
        <path class="cls-3" d="M613.54,355.27c.09,17.2-10.92,27.52-25.92,27.52-16.56,0-26.27-11.6-26.27-27.36s11.01-27.12,26.1-27.12c16.3,0,26.01,11.84,26.1,26.96ZM587.79,376.79c11.53,0,18.38-8.64,18.29-21.36,0-12.4-7.37-21.12-18.73-21.12-10.4,0-18.64,7.44-18.64,21.12,0,11.6,6.59,21.36,19.07,21.36Z"/>
        <path class="cls-3" d="M639.71,362.47c0,8.8,5.2,14.32,14.65,14.32,7.28,0,14.22-2.96,14.22-14.48v-32.64c0-.4.17-.56.52-.56h6.16c.43,0,.61.16.61.56v32.72c0,14.72-9.45,20.4-21.76,20.4-13.09,0-21.59-6.56-21.59-19.92v-33.2c0-.32.09-.56.52-.56h6.16c.35,0,.52.16.52.48v32.88Z"/>
        <path class="cls-3" d="M698.32,381.99c-.35,0-.52-.08-.52-.48v-51.68c0-.4.09-.64.52-.64,4.85-.16,9.28-.24,15.08-.24,12.74,0,21.24,5.04,21.24,15.28,0,7.52-5.55,12.16-11.96,14.16,2.95,3.76,14.56,19.52,16.82,22.96.17.32.17.64-.26.64h-7.28c-.52,0-.69-.08-.95-.32-2.69-3.76-9.88-14-14.22-20.16-.69-.96-1.13-1.28-1.99-1.28h-9.88v21.28c0,.32-.17.48-.52.48h-6.07ZM714.18,354.39c8.24,0,13.26-3.92,13.26-9.84s-5.03-9.68-14.3-9.68c-3.29,0-6.5.08-8.24.16v19.36h9.28Z"/>
        <path class="cls-3" d="M787.43,329.11h9.62c.43,0,.52.16.69.48,2.95,8.24,13.44,36.96,15.26,43.92h.09c1.99-6.64,13.52-35.76,16.47-43.92.09-.32.17-.48.61-.48h9.36c.43,0,.43.08.52.4l2.95,52c.09.32-.17.48-.52.48h-6.42c-.43,0-.61-.08-.61-.4-.78-18.4-1.65-42.96-1.65-47.76h-.09c-2.08,7.2-13.7,37.44-17.34,47.68-.09.4-.35.48-.69.48h-6.07c-.52,0-.69-.08-.78-.48-4.59-13.28-13.7-39.68-16.04-47.76h-.17c-.09,6.96-1.65,30.96-2.6,47.76,0,.4-.17.48-.61.48h-5.9c-.43,0-.52-.08-.52-.48l3.82-51.92c.09-.48.26-.48.61-.48Z"/>
        <path class="cls-3" d="M871.18,365.35l-6.24,16.16c-.09.32-.26.48-.69.48h-5.9c-.43,0-.61-.24-.52-.64l18.9-48.56c.26-.64.52-1.2.61-3.28,0-.24.17-.4.43-.4h8.5c.35,0,.43.08.52.4l20.37,51.92c.17.32.09.56-.35.56h-6.59c-.35,0-.52-.16-.69-.4l-6.33-16.24h-22.02ZM891.21,359.19c-1.91-5.2-7.37-19.2-9.02-24.64h-.09c-1.47,5.12-5.64,15.84-8.93,24.64h18.03Z"/>
        <path class="cls-3" d="M924.06,381.99c-.35,0-.52-.08-.52-.48v-51.68c0-.4.09-.64.52-.64,4.85-.16,9.28-.24,15.08-.24,12.74,0,21.24,5.04,21.24,15.28,0,7.52-5.55,12.16-11.96,14.16,2.95,3.76,14.56,19.52,16.82,22.96.17.32.17.64-.26.64h-7.28c-.52,0-.69-.08-.95-.32-2.69-3.76-9.88-14-14.22-20.16-.69-.96-1.13-1.28-1.99-1.28h-9.88v21.28c0,.32-.17.48-.52.48h-6.07ZM939.93,354.39c8.24,0,13.26-3.92,13.26-9.84s-5.03-9.68-14.3-9.68c-3.29,0-6.5.08-8.24.16v19.36h9.28Z"/>
        <path class="cls-3" d="M988.3,381.43c0,.4-.17.56-.52.56h-6.07c-.43,0-.61-.16-.61-.64v-51.76c0-.32.09-.48.52-.48h6.15c.35,0,.52.16.52.56v51.76ZM1022.03,329.11c.61,0,.69.4.43.72l-25.4,24.56c-.17.16-.17.32,0,.56l27.4,26.32c.26.32.09.72-.35.72h-7.63c-.43,0-.69-.08-1.13-.48l-26.62-25.52c-.52-.48-.52-.8,0-1.2l25.57-25.28c.26-.24.43-.4.87-.4h6.85Z"/>
        <path class="cls-3" d="M1072.57,381.51c-.09.4-.26.48-.61.48h-32.94c-.61,0-.69-.16-.69-.64v-51.68c0-.4.17-.56.61-.56h31.64c.43,0,.52.08.61.48l.69,5.04c.09.32,0,.56-.43.56h-25.92v16.72h23.41c.35,0,.52.16.52.48v5.12c0,.4-.26.48-.52.48h-23.41v17.92h27.57c.43,0,.52.16.43.48l-.95,5.12Z"/>
        <path class="cls-3" d="M1104.38,335.19h-18.55c-.35,0-.52-.16-.43-.56l.87-5.04c.09-.32.26-.48.69-.48h42.39c.43,0,.61.16.69.56l.61,4.96c.09.4-.09.56-.43.56h-18.55v46.16c0,.48-.17.64-.61.64h-5.98c-.43,0-.69-.16-.69-.56v-46.24Z"/>
        <path class="cls-3" d="M1153.27,381.43c0,.4-.09.56-.52.56h-6.07c-.43,0-.61-.16-.61-.56v-51.76c0-.4.17-.56.52-.56h6.16c.35,0,.52.16.52.48v51.84Z"/>
        <path class="cls-3" d="M1176.85,381.99c-.35,0-.61-.08-.61-.56v-51.84c0-.32.09-.48.52-.48h8.58c.43,0,.52.16.78.48,7.54,11.76,24.19,37.76,27.66,44h.09c-.17-2.16-.26-5.2-.26-12.16v-31.76c0-.4.17-.56.61-.56h5.72c.43,0,.61.24.61.64v51.68c0,.4-.17.56-.78.56h-7.72c-.52,0-.78-.08-.95-.48-3.9-6.72-25.49-39.76-28.26-45.68h-.09c.17,3.12.35,7.04.35,14.08v31.52c0,.4-.17.56-.52.56h-5.72Z"/>
        <path class="cls-3" d="M1266.93,359.51c-.43-.08-.61-.16-.61-.56v-4.88c0-.32.26-.4.52-.4h18.81c.52,0,.61.16.61.48v25.36c.09.32-.09.48-.43.64-5.64,2.08-11.36,2.64-16.12,2.64-19.68,0-30.08-11.76-30.08-26.96,0-16.8,12.74-27.52,31.21-27.52,5.89,0,10.66.64,13.78,2,.35.16.43.4.43.8v5.28c0,.4-.26.48-.52.32-3.9-1.84-8.67-2.32-13.52-2.32-14.74-.16-23.93,7.92-23.93,21.2,0,11.76,7.89,21.28,22.97,21.28,3.9,0,6.68-.4,8.93-1.28v-15.92l-12.05-.16Z"/>
        <path class="cls-3" d="M1335.59,329.75c0-.32.09-.56.43-.56,2.77-.08,8.5-.24,14.3-.24,15.35,0,22.11,8,22.11,16.96,0,12.16-10.4,17.84-22.97,17.84-3.64,0-4.77-.08-6.68-.08v17.76c0,.4-.09.56-.52.56h-6.16c-.35,0-.52-.16-.52-.48v-51.76ZM1342.78,357.67c1.47.08,2.95.08,6.59.08,8.5,0,15.87-2.96,15.87-11.68,0-7.28-6.07-11.2-14.83-11.2-3.55,0-6.24.08-7.63.16v22.64Z"/>
        <path class="cls-3" d="M1393.93,365.35l-6.24,16.16c-.09.32-.26.48-.69.48h-5.9c-.43,0-.61-.24-.52-.64l18.9-48.56c.26-.64.52-1.2.61-3.28,0-.24.17-.4.43-.4h8.5c.35,0,.43.08.52.4l20.37,51.92c.17.32.09.56-.35.56h-6.59c-.35,0-.52-.16-.69-.4l-6.33-16.24h-22.02ZM1413.96,359.19c-1.91-5.2-7.37-19.2-9.02-24.64h-.09c-1.47,5.12-5.64,15.84-8.93,24.64h18.03Z"/>
        <path class="cls-3" d="M1446.81,381.99c-.35,0-.52-.08-.52-.48v-51.68c0-.4.09-.64.52-.64,4.86-.16,9.28-.24,15.09-.24,12.74,0,21.24,5.04,21.24,15.28,0,7.52-5.55,12.16-11.96,14.16,2.95,3.76,14.56,19.52,16.82,22.96.17.32.17.64-.26.64h-7.28c-.52,0-.69-.08-.95-.32-2.69-3.76-9.88-14-14.22-20.16-.69-.96-1.13-1.28-1.99-1.28h-9.88v21.28c0,.32-.17.48-.52.48h-6.07ZM1462.68,354.39c8.24,0,13.26-3.92,13.26-9.84s-5.03-9.68-14.3-9.68c-3.29,0-6.5.08-8.24.16v19.36h9.28Z"/>
        <path class="cls-3" d="M1514.87,335.19h-18.55c-.35,0-.52-.16-.43-.56l.87-5.04c.09-.32.26-.48.69-.48h42.39c.43,0,.61.16.69.56l.61,4.96c.09.4-.09.56-.43.56h-18.55v46.16c0,.48-.17.64-.61.64h-5.98c-.43,0-.69-.16-.69-.56v-46.24Z"/>
        <path class="cls-3" d="M1557.17,381.99c-.35,0-.61-.08-.61-.56v-51.84c0-.32.09-.48.52-.48h8.58c.43,0,.52.16.78.48,7.54,11.76,24.19,37.76,27.66,44h.09c-.17-2.16-.26-5.2-.26-12.16v-31.76c0-.4.17-.56.61-.56h5.72c.43,0,.61.24.61.64v51.68c0,.4-.17.56-.78.56h-7.72c-.52,0-.78-.08-.95-.48-3.9-6.72-25.49-39.76-28.26-45.68h-.09c.17,3.12.35,7.04.35,14.08v31.52c0,.4-.17.56-.52.56h-5.72Z"/>
        <path class="cls-3" d="M1657.99,381.51c-.09.4-.26.48-.61.48h-32.94c-.61,0-.69-.16-.69-.64v-51.68c0-.4.17-.56.61-.56h31.64c.43,0,.52.08.61.48l.69,5.04c.09.32,0,.56-.43.56h-25.92v16.72h23.41c.35,0,.52.16.52.48v5.12c0,.4-.26.48-.52.48h-23.41v17.92h27.57c.43,0,.52.16.43.48l-.95,5.12Z"/>
        <path class="cls-3" d="M1677.06,381.99c-.35,0-.52-.08-.52-.48v-51.68c0-.4.09-.64.52-.64,4.86-.16,9.28-.24,15.09-.24,12.74,0,21.24,5.04,21.24,15.28,0,7.52-5.55,12.16-11.96,14.16,2.95,3.76,14.56,19.52,16.82,22.96.17.32.17.64-.26.64h-7.28c-.52,0-.69-.08-.95-.32-2.69-3.76-9.88-14-14.22-20.16-.69-.96-1.13-1.28-1.99-1.28h-9.88v21.28c0,.32-.17.48-.52.48h-6.07ZM1692.93,354.39c8.24,0,13.26-3.92,13.26-9.84s-5.03-9.68-14.3-9.68c-3.29,0-6.5.08-8.24.16v19.36h9.28Z"/>
      </g>
    </g>
  </g>
</svg>