<svg width="8058" height="1741" viewBox="0 0 8058 1741" fill="none" xmlns="http://www.w3.org/2000/svg">
<g clip-path="url(#clip0_2002_47)">
<path d="M870.532 1740.96C1351.31 1740.96 1741.06 1351.23 1741.06 870.48C1741.06 389.727 1351.31 0 870.532 0C389.75 0 0 389.727 0 870.48C0 1351.23 389.75 1740.96 870.532 1740.96Z" fill="white"/>
<path d="M413.823 1625.73L664.648 1011.22L916.198 1325.91L1316.4 442.132L1409.99 484.531L1364.4 22.9326L987.379 293.169L1081.01 335.528L854.732 835.133L591.694 506.053L134.663 1625.73H413.823Z" fill="#F26537"/>
<path d="M1417.2 1625.73H1696.36L1290.68 631.72L1056.58 1148.62L1166.42 1011.22L1417.2 1625.73Z" fill="#F26537"/>
<path d="M2032.27 332.546H2206.48L2451.58 972.892L2695.47 332.546H2869.67V1173.52H2719.49V658.119L2524.86 1168.73L2526.07 1173.52H2375.88L2377.09 1168.73L2182.46 658.119V1173.52H2032.27V332.546Z" fill="white"/>
<path d="M3013.89 319.367C3058.35 319.367 3093.17 355.398 3093.17 398.644C3093.17 444.308 3058.35 479.131 3013.89 479.131C2969.43 479.131 2934.61 444.308 2934.61 398.644C2934.61 355.398 2969.43 319.367 3013.89 319.367ZM2941.82 572.837H3086V1173.52H2941.82V572.837Z" fill="white"/>
<path d="M3134.08 572.837H3299.9L3417.64 750.657L3535.37 572.837H3701.19L3502.96 873.18L3701.19 1173.52H3535.37L3417.64 995.704L3299.9 1173.52H3134.08L3332.31 873.18L3134.08 572.837Z" fill="white"/>
<path d="M4211.83 658.16C4249.07 604.113 4311.55 562.036 4416.06 562.036C4614.33 562.036 4692.4 710.998 4692.4 815.546V1173.56H4548.22V819.133C4548.22 733.85 4485.75 695.401 4416.06 695.401C4346.37 695.401 4283.9 733.85 4283.9 819.133V1173.56H4139.72V819.133C4139.72 733.85 4077.25 695.401 4007.56 695.401C3937.87 695.401 3875.39 733.85 3875.39 819.133V1173.56H3731.22V815.546C3731.22 711.039 3809.33 562.036 4007.56 562.036C4112.07 562.036 4174.59 604.072 4211.79 658.16H4211.83Z" fill="white"/>
<path d="M5193.44 987.32H5350.84C5311.18 1108.67 5204.29 1184.37 5058.9 1184.37C4872.69 1184.37 4747.74 1059.42 4747.74 873.22C4747.74 687.017 4872.69 564.454 5058.9 564.454C5245.12 564.454 5368.9 688.186 5368.9 873.22C5368.9 890.027 5367.69 905.665 5366.48 921.262H4896.71C4912.35 1004.17 4972.41 1052.21 5057.69 1052.21C5117.75 1052.21 5164.63 1029.4 5193.44 987.32ZM5209.08 789.107C5183.85 730.223 5129.8 696.609 5057.69 696.609C4985.59 696.609 4932.74 730.263 4907.51 789.107H5209.08Z" fill="white"/>
<path d="M6040.52 332.546V874.389C6040.52 1067.81 5902.35 1183.16 5725.73 1183.16C5549.11 1183.16 5419.36 1059.42 5419.36 874.389C5419.36 689.355 5544.31 563.244 5718.51 563.244C5805.01 563.244 5867.48 594.48 5896.34 631.72V332.586H6040.52V332.546ZM5729.31 1051C5830.24 1051 5896.34 984.942 5896.34 873.18C5896.34 761.418 5830.24 695.36 5729.31 695.36C5628.39 695.36 5563.5 761.418 5563.5 873.18C5563.5 984.942 5629.6 1051 5729.31 1051Z" fill="white"/>
<path d="M6184.69 319.367C6229.15 319.367 6263.97 355.398 6263.97 398.644C6263.97 444.308 6229.15 479.131 6184.69 479.131C6140.23 479.131 6105.41 444.308 6105.41 398.644C6105.41 355.398 6140.23 319.367 6184.69 319.367ZM6112.63 572.837H6256.8V1173.52H6112.63V572.837Z" fill="white"/>
<path d="M6926 875.598V1173.52H6781.83V1115.85C6753.01 1153.09 6691.74 1184.32 6604 1184.32C6429.79 1184.32 6304.85 1059.38 6304.85 873.18C6304.85 686.977 6429.79 564.413 6614.84 564.413C6799.89 564.413 6926 689.355 6926 875.558V875.598ZM6616.05 696.609C6515.12 696.609 6449.02 762.667 6449.02 874.429C6449.02 986.192 6515.12 1052.25 6616.05 1052.25C6716.98 1052.25 6781.83 986.192 6781.83 874.429C6781.83 762.667 6715.77 696.609 6616.05 696.609Z" fill="white"/>
<path d="M7008.39 814.82H7074.37V1123.67H7252.8V1184.37H7008.35V814.82H7008.39Z" fill="white"/>
<path d="M7536.36 1053.42V1184.33H7473V1158.97C7460.34 1175.34 7433.42 1189.08 7394.84 1189.08C7318.3 1189.08 7263.41 1134.19 7263.41 1052.33C7263.41 970.473 7318.3 916.668 7399.6 916.668C7480.9 916.668 7536.36 971.562 7536.36 1053.42ZM7400.12 974.786C7355.79 974.786 7326.73 1003.8 7326.73 1052.93C7326.73 1102.07 7355.75 1131.08 7400.12 1131.08C7444.5 1131.08 7473 1102.07 7473 1052.93C7473 1003.8 7443.98 974.786 7400.12 974.786Z" fill="white"/>
<path d="M7623.98 814.82V946.291C7636.64 929.928 7663.56 916.184 7701.61 916.184C7778.68 916.184 7833.62 971.078 7833.62 1052.93C7833.62 1134.79 7778.72 1188.6 7698.47 1188.6C7618.22 1188.6 7560.66 1137.94 7560.66 1052.93V814.82H7624.02H7623.98ZM7696.86 974.262C7653.04 974.262 7623.98 1003.28 7623.98 1052.41C7623.98 1101.54 7653 1130.56 7696.86 1130.56C7740.71 1130.56 7770.25 1101.54 7770.25 1052.41C7770.25 1003.28 7741.23 974.262 7696.86 974.262Z" fill="white"/>
<path d="M8058 1104.64C8058 1158.49 8015.23 1187.51 7955.06 1187.51C7899.07 1187.51 7863.2 1162.16 7846.84 1147.41L7880.61 1097.79C7902.78 1118.91 7930.75 1129.47 7956.63 1129.47C7978.27 1129.47 7994.64 1122.1 7994.64 1106.78C7994.64 1061.36 7851.03 1089.37 7851.03 992.761C7851.03 944.195 7887.46 916.225 7947.12 916.225C7999.39 916.225 8033.69 937.344 8056.95 956.367L8023.18 1005.46C7995.2 982.242 7967.75 974.302 7946.11 974.302C7924.47 974.302 7914.43 981.154 7914.43 991.713C7914.43 1030.24 8058.04 1005.98 8058.04 1104.68L8058 1104.64Z" fill="white"/>
<path d="M2032.64 1328.69C2031.59 1327.4 2033 1326.44 2034.37 1326.44H2062.67C2064.4 1326.44 2064.76 1327.08 2065.45 1327.73C2108.78 1399.95 2122.76 1422.84 2128 1433.8C2133.93 1422.84 2147.55 1399.3 2189.51 1328.05C2190.19 1326.76 2190.92 1326.44 2192.29 1326.44H2219.9C2221.31 1326.44 2221.63 1327.4 2220.95 1328.37L2143.72 1452.83C2141.63 1455.73 2140.94 1457.66 2140.94 1461.21V1537.3C2140.94 1538.92 2140.26 1539.56 2138.48 1539.56H2114.7C2112.24 1539.56 2111.56 1538.92 2111.56 1537.3V1460.24C2111.56 1456.7 2111.56 1455.09 2109.46 1452.18L2032.6 1328.69H2032.64Z" fill="white"/>
<path d="M2472.94 1431.87C2473.3 1501.19 2428.93 1542.79 2368.47 1542.79C2301.72 1542.79 2262.58 1496.03 2262.58 1432.52C2262.58 1369 2306.96 1323.21 2367.78 1323.21C2433.48 1323.21 2472.62 1370.93 2472.98 1431.87H2472.94ZM2369.15 1518.6C2415.63 1518.6 2443.24 1483.78 2442.87 1432.52C2442.87 1382.54 2413.17 1347.39 2367.38 1347.39C2325.46 1347.39 2292.25 1377.38 2292.25 1432.52C2292.25 1479.27 2318.81 1518.6 2369.11 1518.6H2369.15Z" fill="white"/>
<path d="M2578.42 1460.89C2578.42 1496.36 2599.38 1518.6 2637.47 1518.6C2666.81 1518.6 2694.79 1506.67 2694.79 1460.24V1328.69C2694.79 1327.08 2695.47 1326.44 2696.88 1326.44H2721.71C2723.44 1326.44 2724.17 1327.08 2724.17 1328.69V1460.57C2724.17 1519.89 2686.08 1542.79 2636.46 1542.79C2583.7 1542.79 2549.44 1516.35 2549.44 1462.5V1328.69C2549.44 1327.4 2549.81 1326.44 2551.54 1326.44H2576.37C2577.78 1326.44 2578.46 1327.08 2578.46 1328.37V1460.89H2578.42Z" fill="white"/>
<path d="M2814.66 1539.56C2813.25 1539.56 2812.56 1539.24 2812.56 1537.63V1329.34C2812.56 1327.73 2812.92 1326.76 2814.66 1326.76C2834.21 1326.11 2852.06 1325.79 2875.44 1325.79C2926.79 1325.79 2961.05 1346.1 2961.05 1387.38C2961.05 1417.68 2938.68 1436.38 2912.84 1444.45C2924.73 1459.6 2971.53 1523.12 2980.64 1536.98C2981.32 1538.27 2981.32 1539.56 2979.59 1539.56H2950.25C2948.15 1539.56 2947.47 1539.24 2946.42 1538.27C2935.58 1523.12 2906.6 1481.85 2889.1 1457.02C2886.32 1453.15 2884.55 1451.86 2881.08 1451.86H2841.26V1537.63C2841.26 1538.92 2840.57 1539.56 2839.16 1539.56H2814.7H2814.66ZM2878.58 1428.32C2911.79 1428.32 2932.03 1412.52 2932.03 1388.66C2932.03 1364.8 2911.75 1349.65 2874.39 1349.65C2861.13 1349.65 2848.19 1349.97 2841.18 1350.3V1428.32H2878.58Z" fill="white"/>
<path d="M3173.82 1326.44H3212.6C3214.33 1326.44 3214.7 1327.08 3215.38 1328.37C3227.27 1361.58 3269.55 1477.33 3276.89 1505.38H3277.25C3285.27 1478.62 3331.74 1361.26 3343.63 1328.37C3344 1327.08 3344.32 1326.44 3346.09 1326.44H3383.82C3385.55 1326.44 3385.55 1326.76 3385.92 1328.05L3397.81 1537.63C3398.17 1538.92 3397.12 1539.56 3395.71 1539.56H3369.83C3368.1 1539.56 3367.37 1539.24 3367.37 1537.95C3364.23 1463.79 3360.72 1364.8 3360.72 1345.46H3360.36C3351.98 1374.48 3305.14 1496.36 3290.47 1537.63C3290.11 1539.24 3289.06 1539.56 3287.69 1539.56H3263.22C3261.13 1539.56 3260.44 1539.24 3260.08 1537.63C3241.58 1484.1 3204.86 1377.7 3195.43 1345.14H3194.74C3194.38 1373.19 3188.09 1469.92 3184.26 1537.63C3184.26 1539.24 3183.58 1539.56 3181.81 1539.56H3158.02C3156.29 1539.56 3155.93 1539.24 3155.93 1537.63L3171.33 1328.37C3171.69 1326.44 3172.37 1326.44 3173.78 1326.44H3173.82Z" fill="white"/>
<path d="M3511.39 1472.5L3486.24 1537.63C3485.88 1538.92 3485.19 1539.56 3483.46 1539.56H3459.68C3457.94 1539.56 3457.22 1538.59 3457.58 1536.98L3533.76 1341.27C3534.81 1338.69 3535.85 1336.43 3536.22 1328.05C3536.22 1327.08 3536.9 1326.44 3537.95 1326.44H3572.21C3573.62 1326.44 3573.94 1326.76 3574.31 1328.05L3656.41 1537.3C3657.1 1538.59 3656.77 1539.56 3655 1539.56H3628.44C3627.03 1539.56 3626.34 1538.92 3625.66 1537.95L3600.14 1472.5H3511.39ZM3592.12 1447.67C3584.42 1426.71 3562.42 1370.29 3555.77 1348.36H3555.4C3549.48 1369 3532.67 1412.2 3519.41 1447.67H3592.08H3592.12Z" fill="white"/>
<path d="M3724.53 1539.56C3723.12 1539.56 3722.43 1539.24 3722.43 1537.63V1329.34C3722.43 1327.73 3722.79 1326.76 3724.53 1326.76C3744.08 1326.11 3761.93 1325.79 3785.31 1325.79C3836.66 1325.79 3870.92 1346.1 3870.92 1387.38C3870.92 1417.68 3848.55 1436.38 3822.71 1444.45C3834.6 1459.6 3881.4 1523.12 3890.51 1536.98C3891.19 1538.27 3891.19 1539.56 3889.46 1539.56H3860.12C3858.02 1539.56 3857.34 1539.24 3856.29 1538.27C3845.45 1523.12 3816.47 1481.85 3798.97 1457.02C3796.19 1453.15 3794.42 1451.86 3790.95 1451.86H3751.13V1537.63C3751.13 1538.92 3750.44 1539.56 3749.03 1539.56H3724.57H3724.53ZM3788.49 1428.32C3821.71 1428.32 3841.94 1412.52 3841.94 1388.66C3841.94 1364.8 3821.67 1349.65 3784.3 1349.65C3771.04 1349.65 3758.1 1349.97 3751.09 1350.3V1428.32H3788.49Z" fill="white"/>
<path d="M3983.45 1537.3C3983.45 1538.92 3982.77 1539.56 3981.36 1539.56H3956.89C3955.16 1539.56 3954.43 1538.92 3954.43 1536.98V1328.37C3954.43 1327.08 3954.8 1326.44 3956.53 1326.44H3981.32C3982.73 1326.44 3983.41 1327.08 3983.41 1328.69V1537.3H3983.45ZM4119.41 1326.44C4121.87 1326.44 4122.19 1328.05 4121.14 1329.34L4018.76 1428.32C4018.08 1428.97 4018.08 1429.61 4018.76 1430.58L4129.2 1536.66C4130.25 1537.95 4129.56 1539.56 4127.79 1539.56H4097.04C4095.3 1539.56 4094.26 1539.24 4092.48 1537.63L3985.19 1434.77C3983.09 1432.84 3983.09 1431.55 3985.19 1429.94L4088.25 1328.05C4089.3 1327.08 4089.98 1326.44 4091.76 1326.44H4119.37H4119.41Z" fill="white"/>
<path d="M4323.11 1537.63C4322.75 1539.24 4322.07 1539.56 4320.65 1539.56H4187.89C4185.43 1539.56 4185.11 1538.92 4185.11 1536.98V1328.69C4185.11 1327.08 4185.79 1326.44 4187.56 1326.44H4315.09C4316.83 1326.44 4317.19 1326.76 4317.55 1328.37L4320.33 1348.68C4320.7 1349.97 4320.33 1350.94 4318.6 1350.94H4214.13V1418.33H4308.48C4309.89 1418.33 4310.58 1418.97 4310.58 1420.26V1440.9C4310.58 1442.51 4309.53 1442.83 4308.48 1442.83H4214.13V1515.06H4325.25C4326.98 1515.06 4327.35 1515.7 4326.98 1516.99L4323.15 1537.63H4323.11Z" fill="white"/>
<path d="M4451.33 1350.94H4376.56C4375.15 1350.94 4374.46 1350.3 4374.83 1348.68L4378.33 1328.37C4378.7 1327.08 4379.38 1326.44 4381.11 1326.44H4551.97C4553.7 1326.44 4554.43 1327.08 4554.75 1328.69L4557.21 1348.68C4557.57 1350.3 4556.85 1350.94 4555.48 1350.94H4480.71V1536.98C4480.71 1538.92 4480.03 1539.56 4478.25 1539.56H4454.15C4452.42 1539.56 4451.37 1538.92 4451.37 1537.3V1350.94H4451.33Z" fill="white"/>
<path d="M4648.38 1537.3C4648.38 1538.92 4648.02 1539.56 4646.29 1539.56H4621.82C4620.09 1539.56 4619.36 1538.92 4619.36 1537.3V1328.69C4619.36 1327.08 4620.05 1326.44 4621.46 1326.44H4646.29C4647.7 1326.44 4648.38 1327.08 4648.38 1328.37V1537.3Z" fill="white"/>
<path d="M4743.43 1539.56C4742.02 1539.56 4740.97 1539.24 4740.97 1537.3V1328.37C4740.97 1327.08 4741.33 1326.44 4743.06 1326.44H4777.65C4779.38 1326.44 4779.74 1327.08 4780.79 1328.37C4811.18 1375.77 4878.29 1480.56 4892.28 1505.71H4892.64C4891.95 1497 4891.59 1484.75 4891.59 1456.7V1328.69C4891.59 1327.08 4892.28 1326.44 4894.05 1326.44H4917.11C4918.84 1326.44 4919.56 1327.4 4919.56 1329.02V1537.3C4919.56 1538.92 4918.88 1539.56 4916.42 1539.56H4885.3C4883.21 1539.56 4882.16 1539.24 4881.47 1537.63C4865.76 1510.54 4778.73 1377.38 4767.57 1353.52H4767.21C4767.89 1366.09 4768.62 1381.89 4768.62 1410.27V1537.3C4768.62 1538.92 4767.93 1539.56 4766.52 1539.56H4743.47H4743.43Z" fill="white"/>
<path d="M5106.5 1448.96C5104.77 1448.64 5104.04 1448.31 5104.04 1446.7V1427.03C5104.04 1425.74 5105.09 1425.42 5106.14 1425.42H5181.96C5184.05 1425.42 5184.42 1426.07 5184.42 1427.36V1529.57C5184.78 1530.86 5184.05 1531.5 5182.68 1532.15C5159.95 1540.53 5136.89 1542.79 5117.71 1542.79C5038.39 1542.79 4996.47 1495.39 4996.47 1434.13C4996.47 1366.42 5047.82 1323.21 5122.26 1323.21C5146 1323.21 5165.23 1325.79 5177.8 1331.27C5179.22 1331.92 5179.54 1332.88 5179.54 1334.5V1355.78C5179.54 1357.39 5178.49 1357.71 5177.44 1357.07C5161.72 1349.65 5142.5 1347.72 5122.95 1347.72C5063.54 1347.07 5026.5 1379.64 5026.5 1433.16C5026.5 1480.56 5058.3 1518.93 5119.08 1518.93C5134.8 1518.93 5146 1517.31 5155.07 1513.77V1449.6L5106.5 1448.96Z" fill="white"/>
<path d="M5383.25 1329.02C5383.25 1327.73 5383.61 1326.76 5384.98 1326.76C5396.14 1326.44 5419.24 1325.79 5442.62 1325.79C5504.49 1325.79 5531.73 1358.03 5531.73 1394.15C5531.73 1443.16 5489.81 1466.05 5439.15 1466.05C5424.48 1466.05 5419.92 1465.73 5412.23 1465.73V1537.3C5412.23 1538.92 5411.86 1539.56 5410.13 1539.56H5385.3C5383.89 1539.56 5383.21 1538.92 5383.21 1537.63V1329.02H5383.25ZM5412.23 1441.54C5418.15 1441.87 5424.12 1441.87 5438.79 1441.87C5473.05 1441.87 5502.75 1429.94 5502.75 1394.79C5502.75 1365.45 5478.29 1349.65 5442.98 1349.65C5428.67 1349.65 5417.83 1349.97 5412.23 1350.3V1441.54Z" fill="white"/>
<path d="M5618.39 1472.5L5593.24 1537.63C5592.88 1538.92 5592.19 1539.56 5590.46 1539.56H5566.68C5564.95 1539.56 5564.22 1538.59 5564.58 1536.98L5640.76 1341.27C5641.81 1338.69 5642.86 1336.43 5643.22 1328.05C5643.22 1327.08 5643.91 1326.44 5644.95 1326.44H5679.21C5680.62 1326.44 5680.95 1326.76 5681.31 1328.05L5763.41 1537.3C5764.1 1538.59 5763.78 1539.56 5762 1539.56H5735.44C5734.03 1539.56 5733.34 1538.92 5732.66 1537.95L5707.15 1472.5H5618.39ZM5699.12 1447.67C5691.43 1426.71 5669.42 1370.29 5662.77 1348.36H5662.41C5656.48 1369 5639.67 1412.2 5626.41 1447.67H5699.08H5699.12Z" fill="white"/>
<path d="M5831.53 1539.56C5830.12 1539.56 5829.43 1539.24 5829.43 1537.63V1329.34C5829.43 1327.73 5829.8 1326.76 5831.53 1326.76C5851.12 1326.11 5868.93 1325.79 5892.35 1325.79C5943.7 1325.79 5977.96 1346.1 5977.96 1387.38C5977.96 1417.68 5955.59 1436.38 5929.76 1444.45C5941.65 1459.6 5988.44 1523.12 5997.55 1536.98C5998.24 1538.27 5998.24 1539.56 5996.5 1539.56H5967.16C5965.06 1539.56 5964.38 1539.24 5963.33 1538.27C5952.49 1523.12 5923.51 1481.85 5906.02 1457.02C5903.24 1453.15 5901.46 1451.86 5898 1451.86H5858.17V1537.63C5858.17 1538.92 5857.49 1539.56 5856.08 1539.56H5831.61H5831.53ZM5895.5 1428.32C5928.71 1428.32 5948.94 1412.52 5948.94 1388.66C5948.94 1364.8 5928.67 1349.65 5891.3 1349.65C5878.04 1349.65 5865.11 1349.97 5858.09 1350.3V1428.32H5895.5Z" fill="white"/>
<path d="M6105.85 1350.94H6031.09C6029.67 1350.94 6028.99 1350.3 6029.35 1348.68L6032.86 1328.37C6033.22 1327.08 6033.91 1326.44 6035.64 1326.44H6206.5C6208.23 1326.44 6208.96 1327.08 6209.28 1328.69L6211.74 1348.68C6212.1 1350.3 6211.38 1350.94 6210 1350.94H6135.24V1536.98C6135.24 1538.92 6134.55 1539.56 6132.78 1539.56H6108.67C6106.94 1539.56 6105.89 1538.92 6105.89 1537.3V1350.94H6105.85Z" fill="white"/>
<path d="M6276.35 1539.56C6274.94 1539.56 6273.89 1539.24 6273.89 1537.3V1328.37C6273.89 1327.08 6274.25 1326.44 6275.99 1326.44H6310.57C6312.3 1326.44 6312.66 1327.08 6313.71 1328.37C6344.1 1375.77 6411.21 1480.56 6425.2 1505.71H6425.56C6424.88 1497 6424.51 1484.75 6424.51 1456.7V1328.69C6424.51 1327.08 6425.2 1326.44 6426.97 1326.44H6450.03C6451.76 1326.44 6452.49 1327.4 6452.49 1329.02V1537.3C6452.49 1538.92 6451.8 1539.56 6449.34 1539.56H6418.23C6416.13 1539.56 6415.08 1539.24 6414.4 1537.63C6398.68 1510.54 6311.66 1377.38 6300.49 1353.52H6300.13C6300.81 1366.09 6301.54 1381.89 6301.54 1410.27V1537.3C6301.54 1538.92 6300.85 1539.56 6299.44 1539.56H6276.39H6276.35Z" fill="white"/>
<path d="M6682.72 1537.63C6682.35 1539.24 6681.67 1539.56 6680.26 1539.56H6547.49C6545.03 1539.56 6544.71 1538.92 6544.71 1536.98V1328.69C6544.71 1327.08 6545.39 1326.44 6547.17 1326.44H6674.69C6676.43 1326.44 6676.79 1326.76 6677.15 1328.37L6679.93 1348.68C6680.3 1349.97 6679.93 1350.94 6678.2 1350.94H6573.73V1418.33H6668.08C6669.49 1418.33 6670.18 1418.97 6670.18 1420.26V1440.9C6670.18 1442.51 6669.13 1442.83 6668.08 1442.83H6573.73V1515.06H6684.85C6686.58 1515.06 6686.95 1515.7 6686.58 1516.99L6682.76 1537.63H6682.72Z" fill="white"/>
<path d="M6759.58 1539.56C6758.17 1539.56 6757.48 1539.24 6757.48 1537.63V1329.34C6757.48 1327.73 6757.85 1326.76 6759.58 1326.76C6779.17 1326.11 6796.98 1325.79 6820.4 1325.79C6871.75 1325.79 6906.01 1346.1 6906.01 1387.38C6906.01 1417.68 6883.64 1436.38 6857.8 1444.45C6869.69 1459.6 6916.49 1523.12 6925.6 1536.98C6926.28 1538.27 6926.28 1539.56 6924.55 1539.56H6895.21C6893.11 1539.56 6892.43 1539.24 6891.38 1538.27C6880.54 1523.12 6851.56 1481.85 6834.06 1457.02C6831.28 1453.15 6829.51 1451.86 6826.04 1451.86H6786.22V1537.63C6786.22 1538.92 6785.54 1539.56 6784.12 1539.56H6759.66H6759.58ZM6823.54 1428.32C6856.76 1428.32 6876.99 1412.52 6876.99 1388.66C6876.99 1364.8 6856.72 1349.65 6819.35 1349.65C6806.09 1349.65 6793.15 1349.97 6786.14 1350.3V1428.32H6823.54Z" fill="white"/>
</g>
<defs>
<clipPath id="clip0_2002_47">
<rect width="8058" height="1741" fill="white"/>
</clipPath>
</defs>
</svg>
